<svg width="40" height="38" viewBox="0 0 40 38" fill="none" xmlns="http://www.w3.org/2000/svg">
<path d="M29.1664 0.52832C27.2897 0.557512 25.4539 1.08141 23.8444 2.04711C22.2349 3.0128 20.9087 4.3861 19.9998 6.02832C19.0908 4.3861 17.7647 3.0128 16.1552 2.04711C14.5457 1.08141 12.7099 0.557512 10.8331 0.52832C7.84134 0.658305 5.02261 1.96708 2.99274 4.16871C0.962867 6.37034 -0.11315 9.28586 -0.000232277 12.2783C-0.000232277 23.57 18.2598 36.6117 19.0364 37.165L19.9998 37.8467L20.9631 37.165C21.7398 36.615 39.9998 23.57 39.9998 12.2783C40.1127 9.28586 39.0367 6.37034 37.0068 4.16871C34.9769 1.96708 32.1582 0.658305 29.1664 0.52832ZM19.9998 33.7433C14.5781 29.6933 3.3331 19.7433 3.3331 12.2783C3.21917 10.1695 3.94371 8.1012 5.34871 6.52449C6.7537 4.94777 8.72516 3.99057 10.8331 3.86165C12.941 3.99057 14.9125 4.94777 16.3175 6.52449C17.7225 8.1012 18.447 10.1695 18.3331 12.2783H21.6664C21.5525 10.1695 22.277 8.1012 23.682 6.52449C25.087 4.94777 27.0585 3.99057 29.1664 3.86165C31.2744 3.99057 33.2458 4.94777 34.6508 6.52449C36.0558 8.1012 36.7804 10.1695 36.6664 12.2783C36.6664 19.7467 25.4214 29.6933 19.9998 33.7433Z" fill="black"/>
</svg>
