<svg width="36" height="36" viewBox="0 0 36 36" fill="none" xmlns="http://www.w3.org/2000/svg">
<path d="M35.105 32.904L26.4002 24.1992C28.7724 21.298 29.9387 17.596 29.6579 13.859C29.3771 10.1219 27.6707 6.6358 24.8917 4.12162C22.1126 1.60744 18.4736 0.257577 14.7272 0.351248C10.9808 0.444919 7.41372 1.97496 4.76379 4.62488C2.11387 7.2748 0.583835 10.8419 0.490164 14.5883C0.396493 18.3346 1.74635 21.9737 4.26053 24.7528C6.77472 27.5318 10.2609 29.2382 13.9979 29.519C17.7349 29.7997 21.4369 28.6334 24.3381 26.2613L33.0429 34.9661C33.3179 35.2317 33.6863 35.3787 34.0687 35.3754C34.4511 35.3721 34.8168 35.2187 35.0872 34.9483C35.3576 34.6779 35.511 34.3121 35.5143 33.9298C35.5176 33.5474 35.3706 33.179 35.105 32.904ZM15.1156 26.6434C12.8082 26.6434 10.5525 25.9591 8.63396 24.6772C6.71538 23.3952 5.22004 21.5731 4.33701 19.4413C3.45399 17.3095 3.22295 14.9637 3.67311 12.7006C4.12327 10.4375 5.23442 8.35873 6.86603 6.72711C8.49764 5.0955 10.5764 3.98436 12.8396 3.5342C15.1027 3.08404 17.4484 3.31507 19.5802 4.1981C21.7121 5.08112 23.5341 6.57647 24.8161 8.49504C26.098 10.4136 26.7823 12.6692 26.7823 14.9767C26.7788 18.0698 25.5485 21.0353 23.3614 23.2224C21.1742 25.4096 18.2087 26.6399 15.1156 26.6434Z" fill="black"/>
</svg>
