<svg width="101" height="100" viewBox="0 0 101 100" fill="none" xmlns="http://www.w3.org/2000/svg">
<path d="M61.3336 88.7498C60.0836 89.6915 58.7544 90.6831 57.6252 91.6665H67.1669C68.272 91.6665 69.3318 92.1055 70.1132 92.8869C70.8946 93.6683 71.3336 94.7281 71.3336 95.8331C71.3336 96.9382 70.8946 97.998 70.1132 98.7794C69.3318 99.5608 68.272 99.9998 67.1669 99.9998H50.5002C49.3952 99.9998 48.3354 99.5608 47.554 98.7794C46.7726 97.998 46.3336 96.9382 46.3336 95.8331C46.3336 89.5831 51.6461 85.5998 56.3336 82.0831C59.4586 79.7415 63.0002 77.0831 63.0002 74.9998C63.0002 73.8947 62.5612 72.8349 61.7798 72.0535C60.9984 71.2721 59.9386 70.8331 58.8336 70.8331C57.7285 70.8331 56.6687 71.2721 55.8873 72.0535C55.1059 72.8349 54.6669 73.8947 54.6669 74.9998C54.6669 76.1049 54.2279 77.1647 53.4465 77.9461C52.6651 78.7275 51.6053 79.1665 50.5002 79.1665C49.3952 79.1665 48.3354 78.7275 47.554 77.9461C46.7726 77.1647 46.3336 76.1049 46.3336 74.9998C46.3336 71.6846 47.6505 68.5052 49.9947 66.161C52.3389 63.8168 55.5184 62.4998 58.8336 62.4998C62.1488 62.4998 65.3282 63.8168 67.6724 66.161C70.0166 68.5052 71.3336 71.6846 71.3336 74.9998C71.3336 81.2498 66.0211 85.2331 61.3336 88.7498ZM96.3336 62.4998C95.2285 62.4998 94.1687 62.9388 93.3873 63.7202C92.6059 64.5016 92.1669 65.5614 92.1669 66.6665V79.1665H88.0002C86.8952 79.1665 85.8354 78.7275 85.054 77.9461C84.2726 77.1647 83.8336 76.1049 83.8336 74.9998V66.6665C83.8336 65.5614 83.3946 64.5016 82.6132 63.7202C81.8318 62.9388 80.772 62.4998 79.6669 62.4998C78.5618 62.4998 77.502 62.9388 76.7206 63.7202C75.9392 64.5016 75.5002 65.5614 75.5002 66.6665V74.9998C75.5002 78.315 76.8172 81.4944 79.1614 83.8386C81.5056 86.1828 84.685 87.4998 88.0002 87.4998H92.1669V95.8331C92.1669 96.9382 92.6059 97.998 93.3873 98.7794C94.1687 99.5608 95.2285 99.9998 96.3336 99.9998C97.4386 99.9998 98.4985 99.5608 99.2799 98.7794C100.061 97.998 100.5 96.9382 100.5 95.8331V66.6665C100.5 65.5614 100.061 64.5016 99.2799 63.7202C98.4985 62.9388 97.4386 62.4998 96.3336 62.4998ZM54.6669 49.9998V29.1665C54.6669 28.0614 54.2279 27.0016 53.4465 26.2202C52.6651 25.4388 51.6053 24.9998 50.5002 24.9998C49.3952 24.9998 48.3354 25.4388 47.554 26.2202C46.7726 27.0016 46.3336 28.0614 46.3336 29.1665V45.8331H33.8336C32.7285 45.8331 31.6687 46.2721 30.8873 47.0535C30.1059 47.8349 29.6669 48.8947 29.6669 49.9998C29.6669 51.1049 30.1059 52.1647 30.8873 52.9461C31.6687 53.7275 32.7285 54.1665 33.8336 54.1665H50.5002C51.6053 54.1665 52.6651 53.7275 53.4465 52.9461C54.2279 52.1647 54.6669 51.1049 54.6669 49.9998ZM96.3336 8.33313C95.2285 8.33313 94.1687 8.77212 93.3873 9.55352C92.6059 10.3349 92.1669 11.3947 92.1669 12.4998V22.3915C87.8255 15.8397 82.0008 10.4036 75.1652 6.52439C68.3296 2.64515 60.6758 0.431981 52.8248 0.0644639C44.9738 -0.303053 37.1468 1.18543 29.9787 4.40915C22.8106 7.63286 16.5035 12.501 11.5691 18.6186C6.63461 24.7361 3.21184 31.9308 1.57846 39.6188C-0.0549217 47.3068 0.147105 55.2716 2.16814 62.8669C4.18918 70.4622 7.97231 77.4741 13.2106 83.3336C18.4488 89.1932 24.9946 93.7353 32.3169 96.5915C32.8008 96.7781 33.3149 96.8742 33.8336 96.8748C34.8059 96.8763 35.7481 96.5377 36.4971 95.9176C37.2461 95.2976 37.7546 94.4351 37.9346 93.4796C38.1147 92.5241 37.9548 91.5357 37.4829 90.6856C37.0109 89.8355 36.2565 89.1772 35.3502 88.8248C29.1337 86.421 23.5845 82.5609 19.1685 77.5686C14.7525 72.5763 11.5986 66.5975 9.97152 60.134C8.34444 53.6705 8.29166 46.911 9.81763 40.4229C11.3436 33.9348 14.4038 27.9074 18.7413 22.8468C23.0788 17.7861 28.567 13.8399 34.7453 11.3393C40.9235 8.83868 47.6115 7.85672 54.2479 8.47582C60.8842 9.09492 67.2752 11.297 72.8843 14.8973C78.4934 18.4975 83.157 23.3908 86.4836 29.1665H75.5002C74.3952 29.1665 73.3354 29.6055 72.554 30.3869C71.7726 31.1683 71.3336 32.2281 71.3336 33.3331C71.3336 34.4382 71.7726 35.498 72.554 36.2794C73.3354 37.0608 74.3952 37.4998 75.5002 37.4998H88.0002C91.3154 37.4998 94.4949 36.1828 96.8391 33.8386C99.1833 31.4944 100.5 28.315 100.5 24.9998V12.4998C100.5 11.3947 100.061 10.3349 99.2799 9.55352C98.4985 8.77212 97.4386 8.33313 96.3336 8.33313Z" fill="black"/>
</svg>
