<svg width="101" height="92" viewBox="0 0 101 92" fill="none" xmlns="http://www.w3.org/2000/svg">
<path d="M79.6667 16.8332H71.0125C69.6125 8.904 63.7083 2.35817 55.7042 0.299837C53.5 -0.270996 51.2083 1.07067 50.6292 3.29567C50.0542 5.52484 51.4 7.79567 53.6292 8.3665C59.1458 9.78734 63 14.7665 63 20.4748V66.8332H17.1667C12.5708 66.8332 8.83333 63.0957 8.83333 58.4998V41.8332H19.25C21.5542 41.8332 23.4167 39.9665 23.4167 37.6665C23.4167 35.3665 21.5542 33.4998 19.25 33.4998H8.83333C4.2375 33.4998 0.5 37.2373 0.5 41.8332V58.4998C0.5 66.3332 5.93333 72.9207 13.2292 74.6957C13.0792 75.5332 13 76.3873 13 77.2498C13 85.2915 19.5417 91.8332 27.5833 91.8332C35.625 91.8332 42.1667 85.2915 42.1667 77.2498C42.1667 76.5457 42.1125 75.854 42.0125 75.1665H58.9875C58.8875 75.854 58.8333 76.5457 58.8333 77.2498C58.8333 85.2915 65.375 91.8332 73.4167 91.8332C81.4583 91.8332 88 85.2915 88 77.2498C88 76.3873 87.9208 75.5332 87.7708 74.6957C95.0667 72.9207 100.5 66.3332 100.5 58.4998V37.6665C100.5 26.179 91.1542 16.8332 79.6667 16.8332ZM92.1667 37.6665V41.8332H71.3333V25.1665H79.6667C86.5583 25.1665 92.1667 30.7748 92.1667 37.6665ZM33.8333 77.2498C33.8333 80.6957 31.0292 83.4998 27.5833 83.4998C24.1375 83.4998 21.3333 80.6957 21.3333 77.2498C21.3333 76.4623 21.4875 75.7665 21.7125 75.1665H33.4583C33.6833 75.7665 33.8375 76.4623 33.8375 77.2498H33.8333ZM73.4167 83.4998C69.9708 83.4998 67.1667 80.6957 67.1667 77.2498C67.1667 76.4623 67.3208 75.7665 67.5458 75.1665H79.2917C79.5167 75.7665 79.6708 76.4623 79.6708 77.2498C79.6708 80.6957 76.8625 83.4998 73.4167 83.4998ZM83.8333 66.8332H71.3333V50.1665H92.1667V58.4998C92.1667 63.0957 88.4292 66.8332 83.8333 66.8332ZM0.5 4.33317C0.5 2.03317 2.3625 0.166504 4.66667 0.166504H38.6417C40.9458 0.166504 42.8083 2.03317 42.8083 4.33317C42.8083 6.63317 40.9458 8.49984 38.6417 8.49984H4.66667C2.3625 8.49984 0.5 6.63317 0.5 4.33317ZM0.5 20.9998C0.5 18.6998 2.3625 16.8332 4.66667 16.8332H30.3083C32.6125 16.8332 34.475 18.6998 34.475 20.9998C34.475 23.2998 32.6125 25.1665 30.3083 25.1665H4.66667C2.3625 25.1665 0.5 23.2998 0.5 20.9998Z" fill="black"/>
</svg>
