<svg width="80" height="100" viewBox="0 0 80 100" fill="none" xmlns="http://www.w3.org/2000/svg">
<path d="M24.9168 39.5834C24.9168 41.8793 25.4501 44.0543 26.4001 45.9876C24.3585 48.6043 23.0877 51.8501 22.9168 55.3876C18.996 51.2709 16.5835 45.7043 16.5835 39.5876C16.5835 25.3751 29.5918 14.1418 44.3293 17.1668C53.0043 18.9501 60.0335 25.9376 61.8835 34.6001C62.4418 37.2168 62.546 39.7793 62.2626 42.2293C62.021 44.3043 60.2001 45.8376 58.1085 45.8376H57.921C55.4543 45.8376 53.721 43.6418 53.9918 41.1918C54.1751 39.5459 54.0793 37.8168 53.6585 36.0543C52.4168 30.8334 48.1585 26.6043 42.9293 25.4001C33.4043 23.2126 24.9126 30.4293 24.9126 39.5876L24.9168 39.5834ZM8.70848 34.1876C9.85015 27.5501 13.096 21.5001 18.1293 16.7793C24.5001 10.8084 32.8418 7.85845 41.5877 8.40011C58.0585 9.46678 70.9377 23.8959 70.746 41.1709C70.6668 48.4043 64.6085 54.1626 57.3793 54.1626H47.3543C46.3377 50.7084 43.1793 48.1668 39.396 48.1668C34.7918 48.1668 31.0627 51.8959 31.0627 56.5001C31.0627 61.1043 34.7918 64.8334 39.396 64.8334C41.6377 64.8334 43.6668 63.9376 45.1627 62.4959H57.3793C69.1252 62.4959 78.9127 53.1418 79.0793 41.4001C79.3876 19.6459 63.046 1.43761 42.1252 0.0876119C31.0252 -0.633221 20.496 3.13761 12.4335 10.7043C6.18765 16.5584 2.03348 24.3084 0.53765 32.6459C0.0834835 35.1793 2.08765 37.5043 4.65848 37.5043C6.62515 37.5043 8.37932 36.1334 8.70848 34.1918V34.1876ZM39.5001 70.8334C24.1043 70.8334 10.7835 80.3834 6.35432 94.5918C5.66682 96.7876 6.89598 99.1251 9.09182 99.8126C11.2835 100.475 13.621 99.2668 14.3085 97.0751C17.596 86.5334 27.9501 79.1668 39.496 79.1668C51.0418 79.1668 61.4002 86.5334 64.6835 97.0751C65.2418 98.8584 66.8835 100 68.6627 100C69.0751 100 69.4877 99.9376 69.9043 99.8126C72.1002 99.1251 73.3251 96.7876 72.6418 94.5918C68.2127 80.3834 54.8918 70.8334 39.496 70.8334H39.5001Z" fill="black"/>
</svg>
