<svg width="35" height="36" viewBox="0 0 35 36" fill="none" xmlns="http://www.w3.org/2000/svg">
<path d="M30.625 9.25H26.25C26.25 6.92936 25.3281 4.70376 23.6872 3.06282C22.0462 1.42187 19.8206 0.5 17.5 0.5C15.1794 0.5 12.9538 1.42187 11.3128 3.06282C9.67187 4.70376 8.75 6.92936 8.75 9.25H4.375C3.21468 9.25 2.10188 9.71094 1.28141 10.5314C0.460936 11.3519 0 12.4647 0 13.625L0 28.2083C0.00231563 30.1415 0.771286 31.9948 2.13824 33.3618C3.50519 34.7287 5.35851 35.4977 7.29167 35.5H27.7083C29.6415 35.4977 31.4948 34.7287 32.8618 33.3618C34.2287 31.9948 34.9977 30.1415 35 28.2083V13.625C35 12.4647 34.5391 11.3519 33.7186 10.5314C32.8981 9.71094 31.7853 9.25 30.625 9.25ZM17.5 3.41667C19.0471 3.41667 20.5308 4.03125 21.6248 5.12521C22.7188 6.21917 23.3333 7.7029 23.3333 9.25H11.6667C11.6667 7.7029 12.2812 6.21917 13.3752 5.12521C14.4692 4.03125 15.9529 3.41667 17.5 3.41667ZM32.0833 28.2083C32.0833 29.3687 31.6224 30.4815 30.8019 31.3019C29.9815 32.1224 28.8687 32.5833 27.7083 32.5833H7.29167C6.13134 32.5833 5.01855 32.1224 4.19807 31.3019C3.3776 30.4815 2.91667 29.3687 2.91667 28.2083V13.625C2.91667 13.2382 3.07031 12.8673 3.3438 12.5938C3.61729 12.3203 3.98823 12.1667 4.375 12.1667H8.75V15.0833C8.75 15.4701 8.90365 15.841 9.17714 16.1145C9.45063 16.388 9.82156 16.5417 10.2083 16.5417C10.5951 16.5417 10.966 16.388 11.2395 16.1145C11.513 15.841 11.6667 15.4701 11.6667 15.0833V12.1667H23.3333V15.0833C23.3333 15.4701 23.487 15.841 23.7605 16.1145C24.034 16.388 24.4049 16.5417 24.7917 16.5417C25.1784 16.5417 25.5494 16.388 25.8229 16.1145C26.0964 15.841 26.25 15.4701 26.25 15.0833V12.1667H30.625C31.0118 12.1667 31.3827 12.3203 31.6562 12.5938C31.9297 12.8673 32.0833 13.2382 32.0833 13.625V28.2083Z" fill="black"/>
</svg>
