<svg width="60" height="60" viewBox="0 0 60 60" fill="none" xmlns="http://www.w3.org/2000/svg">
<path d="M56.4 30.625C56.4 28.675 56.225 26.8 55.9 25H30V35.65H44.8C44.15 39.075 42.2 41.975 39.275 43.925V50.85H48.2C53.4 46.05 56.4 39 56.4 30.625Z" fill="#4285F4"/>
<path d="M30 57.5C37.4249 57.5 43.65 55.05 48.2 50.85L39.275 43.925C36.825 45.575 33.7 46.575 30 46.575C22.85 46.575 16.775 41.75 14.6 35.25H5.44995V42.35C9.97495 51.325 19.25 57.5 30 57.5Z" fill="#34A853"/>
<path d="M14.6 35.225C14.05 33.575 13.725 31.825 13.725 30C13.725 28.175 14.05 26.425 14.6 24.775V17.675H5.45C3.575 21.375 2.5 25.55 2.5 30C2.5 34.45 3.575 38.625 5.45 42.3251L12.575 36.775L14.6 35.225Z" fill="#FBBC05"/>
<path d="M30 13.45C34.0499 13.45 37.6499 14.85 40.5249 17.55L48.4 9.675C43.625 5.225 37.4249 2.5 30 2.5C19.25 2.5 9.97495 8.675 5.44995 17.675L14.6 24.775C16.775 18.275 22.85 13.45 30 13.45Z" fill="#EA4335"/>
</svg>
