<svg width="40" height="40" viewBox="0 0 40 40" fill="none" xmlns="http://www.w3.org/2000/svg">
<path d="M20 0C8.97167 0 0 8.97167 0 20C0 31.0283 8.97167 40 20 40C31.0283 40 40 31.0283 40 20C40 8.97167 31.0283 0 20 0ZM13.3333 35.2733V35C13.3333 31.3233 16.3233 28.3333 20 28.3333C23.6767 28.3333 26.6667 31.3233 26.6667 35V35.2733C24.6233 36.1683 22.37 36.6667 20 36.6667C17.63 36.6667 15.3767 36.1683 13.3333 35.2733ZM29.875 33.4183C29.115 28.6533 24.9767 25 20 25C15.0233 25 10.8867 28.6533 10.125 33.4183C6.00833 30.38 3.33333 25.4967 3.33333 20C3.33333 10.81 10.81 3.33333 20 3.33333C29.19 3.33333 36.6667 10.81 36.6667 20C36.6667 25.4967 33.9917 30.38 29.875 33.4183ZM20 8.33333C16.3233 8.33333 13.3333 11.3233 13.3333 15C13.3333 18.6767 16.3233 21.6667 20 21.6667C23.6767 21.6667 26.6667 18.6767 26.6667 15C26.6667 11.3233 23.6767 8.33333 20 8.33333ZM20 18.3333C18.1617 18.3333 16.6667 16.8383 16.6667 15C16.6667 13.1617 18.1617 11.6667 20 11.6667C21.8383 11.6667 23.3333 13.1617 23.3333 15C23.3333 16.8383 21.8383 18.3333 20 18.3333Z" fill="white"/>
</svg>
